<?xml version="1.0" standalone="no"?>
<!DOCTYPE svg PUBLIC "-//W3C//DTD SVG 20010904//EN"
 "http://www.w3.org/TR/2001/REC-SVG-20010904/DTD/svg10.dtd">
<svg version="1.0" xmlns="http://www.w3.org/2000/svg"
 width="512.000000pt" height="512.000000pt" viewBox="0 0 512.000000 512.000000"
 preserveAspectRatio="xMidYMid meet">

<g transform="translate(0.000000,512.000000) scale(0.100000,-0.100000)"
fill="#ffffff" stroke="none">
<path d="M2310 5093 c0 -16 -12 -55 -26 -88 -45 -106 -55 -139 -65 -212 -14
-103 3 -213 48 -316 50 -112 55 -181 18 -268 -40 -96 -62 -168 -69 -231 l-6
-58 149 0 149 0 7 38 c4 20 21 71 39 112 41 92 56 160 56 250 0 92 -15 159
-59 255 -50 110 -50 177 1 290 37 84 58 163 58 220 l0 35 -150 0 -150 0 0 -27z"/>
<path d="M3135 5083 c-4 -21 -21 -72 -39 -113 -42 -95 -56 -160 -56 -258 0
-90 14 -149 61 -252 47 -106 47 -175 -3 -285 -37 -84 -58 -163 -58 -220 l0
-35 150 0 150 0 0 30 c0 16 15 64 34 107 49 112 59 156 59 263 0 107 -10 151
-59 263 -26 60 -34 92 -34 137 0 45 8 77 34 137 38 86 51 132 60 211 l7 52
-150 0 -149 0 -7 -37z"/>
<path d="M3960 5090 c0 -17 -18 -72 -39 -123 -27 -61 -43 -118 -49 -169 -14
-113 1 -213 49 -325 53 -127 53 -179 0 -306 -22 -50 -43 -117 -46 -147 -3 -30
-8 -65 -11 -77 l-4 -23 149 0 150 0 7 38 c4 20 22 71 40 112 43 99 53 147 54
249 0 96 -17 169 -61 267 -46 99 -45 170 4 279 41 91 56 150 57 213 l0 42
-150 0 -150 0 0 -30z"/>
<path d="M1360 2271 c0 -1117 2 -1362 14 -1423 76 -396 366 -706 762 -816 l99
-27 990 0 c1111 0 1060 -3 1250 75 252 103 462 312 565 564 79 194 74 78 77
1609 l3 1367 -1880 0 -1880 0 0 -1349z"/>
<path d="M738 2894 c-249 -45 -477 -204 -610 -426 -267 -447 -93 -1032 375
-1263 135 -66 223 -86 405 -92 l152 -5 0 301 0 301 -105 0 c-168 0 -264 50
-322 168 -23 47 -28 70 -28 132 0 91 24 149 85 210 67 67 115 84 253 88 l117
4 0 299 0 299 -122 -1 c-68 0 -157 -7 -200 -15z"/>
</g>
</svg>
