<?xml version="1.0" standalone="no"?>
<!DOCTYPE svg PUBLIC "-//W3C//DTD SVG 20010904//EN"
 "http://www.w3.org/TR/2001/REC-SVG-20010904/DTD/svg10.dtd">
<svg version="1.0" xmlns="http://www.w3.org/2000/svg"
 width="512.000000pt" height="512.000000pt" viewBox="0 0 512.000000 512.000000"
 preserveAspectRatio="xMidYMid meet">

<g transform="translate(0.000000,512.000000) scale(0.100000,-0.100000)"
fill="#000000" stroke="none">
<path d="M717 4675 c-191 -53 -338 -206 -382 -400 -14 -62 -15 -199 -13 -1215
l3 -1145 25 -65 c52 -134 145 -240 259 -296 124 -61 88 -58 809 -62 364 -2
662 -4 662 -5 0 -1 -76 -191 -168 -422 l-168 -420 -250 -5 c-279 -6 -292 -9
-314 -74 -14 -43 6 -96 46 -123 27 -17 86 -18 1334 -18 1248 0 1307 1 1334 18
40 27 60 80 46 123 -22 65 -35 68 -314 74 l-250 5 -168 420 c-92 231 -168 421
-168 422 0 1 298 3 663 5 l662 3 65 23 c166 60 275 167 340 332 l25 65 3 1147
c3 1275 6 1216 -64 1349 -67 126 -194 227 -334 264 -78 21 -3608 21 -3683 0z
m3681 -224 c68 -31 144 -113 169 -183 17 -50 18 -113 18 -1183 l0 -1130 -27
-57 c-35 -75 -104 -141 -174 -167 -55 -21 -62 -21 -1823 -21 -1962 0 -1809 -5
-1906 68 -36 27 -60 56 -85 106 l-35 69 -3 1101 c-3 1126 -2 1179 35 1250 21
41 92 115 127 133 82 43 29 42 1881 40 l1770 -2 53 -24z m-1420 -3386 l170
-425 -589 0 -589 0 19 48 c10 26 83 207 161 402 78 195 146 365 151 378 9 22
9 22 258 22 l249 0 170 -425z"/>
</g>
</svg>
